<?xml version="1.0" encoding="UTF-8" standalone="no"?>
<!-- Generator: Adobe Illustrator 24.3.0, SVG Export Plug-In . SVG Version: 6.00 Build 0)  -->

<svg
   version="1.1"
   id="Layer_1"
   x="0px"
   y="0px"
   viewBox="0 0 33.861561 34.883473"
   xml:space="preserve"
   sodipodi:docname="cropped-instagram-logo2.svg"
   width="33.861561"
   height="34.883472"
   inkscape:version="1.1.2 (b8e25be8, 2022-02-05)"
   xmlns:inkscape="http://www.inkscape.org/namespaces/inkscape"
   xmlns:sodipodi="http://sodipodi.sourceforge.net/DTD/sodipodi-0.dtd"
   xmlns="http://www.w3.org/2000/svg"
   xmlns:svg="http://www.w3.org/2000/svg"><defs
   id="defs1818"><clipPath
     clipPathUnits="userSpaceOnUse"
     id="clipPath1926"><rect
       style="opacity:0.5;fill:#ff0000"
       id="rect1928"
       width="20.109707"
       height="20.013485"
       x="1.7800455"
       y="0" /></clipPath></defs><sodipodi:namedview
   id="namedview1816"
   pagecolor="#ffffff"
   bordercolor="#cccccc"
   borderopacity="1"
   inkscape:pageshadow="0"
   inkscape:pageopacity="0"
   inkscape:pagecheckerboard="0"
   showgrid="false"
   fit-margin-top="0"
   fit-margin-left="0"
   fit-margin-right="0"
   fit-margin-bottom="0"
   inkscape:zoom="13.545712"
   inkscape:cx="16.352038"
   inkscape:cy="17.201016"
   inkscape:window-width="1296"
   inkscape:window-height="788"
   inkscape:window-x="0"
   inkscape:window-y="23"
   inkscape:window-maximized="0"
   inkscape:current-layer="Layer_1"
   inkscape:lockguides="false"
   lock-margins="false" />
<style
   type="text/css"
   id="style1807">
	.st0{fill-rule:evenodd;clip-rule:evenodd;}
</style>
<desc
   id="desc1809">Created with Sketch.</desc>
<g
   id="Page-1"
   clip-path="url(#clipPath1926)"
   transform="matrix(1.694149,0,0,1.7429984,-3.125532,0)">
	<g
   id="Dribbble-Light-Preview"
   transform="translate(-340,-7439)">
		<g
   id="icons"
   transform="translate(56,160)">
			<path
   id="instagram-_x5B__x23_167_x5D_"
   class="st0"
   d="m 291.7,7279.1 c -1.6,0.1 -3,0.5 -4.2,1.6 -1.1,1.1 -1.5,2.6 -1.6,4.2 0,1 -0.3,8.6 0.5,10.6 0.5,1.3 1.6,2.4 2.9,2.9 0.6,0.2 1.4,0.4 2.4,0.5 8.9,0.4 12.1,0.2 13.5,-3.4 0.2,-0.6 0.4,-1.4 0.5,-2.4 0.4,-8.9 -0.1,-10.8 -1.6,-12.4 -1.2,-1.2 -2.7,-2 -12.4,-1.6 m 0.1,18 c -1,0 -1.5,-0.2 -1.8,-0.3 -0.9,-0.3 -1.5,-1 -1.9,-1.9 -0.6,-1.5 -0.4,-8.7 -0.3,-9.9 0.1,-1.1 0.3,-2.2 1.1,-3 1,-1 2.3,-1.5 11,-1.1 1.1,0.1 2.2,0.3 3,1.1 1,1 1.5,2.3 1.1,11 0,1 -0.2,1.5 -0.3,1.8 -1,2.4 -3.1,2.7 -11.9,2.3 m 8.1,-13.4 c 0,0.7 0.5,1.2 1.2,1.2 0.7,0 1.2,-0.5 1.2,-1.2 0,-0.7 -0.5,-1.2 -1.2,-1.2 -0.6,0 -1.2,0.5 -1.2,1.2 m -9.2,5.3 c 0,2.8 2.3,5.1 5.1,5.1 2.8,0 5.1,-2.3 5.1,-5.1 0,-2.8 -2.3,-5.1 -5.1,-5.1 -2.8,0 -5.1,2.3 -5.1,5.1 m 1.8,0 c 0,-1.8 1.5,-3.3 3.3,-3.3 1.8,0 3.3,1.5 3.3,3.3 0,1.8 -1.5,3.3 -3.3,3.3 -1.8,0 -3.3,-1.5 -3.3,-3.3" />
		</g>
	</g>
</g>
</svg>
