<?xml version="1.0" encoding="UTF-8" standalone="no"?>
<!-- Generator: Adobe Illustrator 24.3.0, SVG Export Plug-In . SVG Version: 6.00 Build 0)  -->

<svg
   version="1.1"
   id="Layer_1"
   x="0px"
   y="0px"
   viewBox="0 0 34.799999 24.240682"
   xml:space="preserve"
   sodipodi:docname="cropped-email-icon2.svg"
   inkscape:version="1.1.2 (b8e25be8, 2022-02-05)"
   width="34.799999"
   height="24.240681"
   xmlns:inkscape="http://www.inkscape.org/namespaces/inkscape"
   xmlns:sodipodi="http://sodipodi.sourceforge.net/DTD/sodipodi-0.dtd"
   xmlns="http://www.w3.org/2000/svg"
   xmlns:svg="http://www.w3.org/2000/svg"><defs
   id="defs121"><clipPath
     clipPathUnits="userSpaceOnUse"
     id="clipPath1697"><rect
       style="opacity:0.5;fill:#ff0000;fill-rule:evenodd;stroke-width:0.92059"
       id="rect1699"
       width="52.549896"
       height="36.623707"
       x="4.0375051"
       y="29.652193" /></clipPath></defs><sodipodi:namedview
   id="namedview119"
   pagecolor="#ffffff"
   bordercolor="#cccccc"
   borderopacity="1"
   inkscape:pageshadow="0"
   inkscape:pageopacity="0"
   inkscape:pagecheckerboard="0"
   showgrid="false"
   inkscape:zoom="136.11723"
   inkscape:cx="34.202136"
   inkscape:cy="0.88159303"
   inkscape:window-width="1418"
   inkscape:window-height="788"
   inkscape:window-x="0"
   inkscape:window-y="23"
   inkscape:window-maximized="0"
   inkscape:current-layer="Layer_1"
   fit-margin-top="0"
   fit-margin-left="0"
   fit-margin-right="0"
   fit-margin-bottom="0"
   lock-margins="true" />
<g
   id="g384"
   clip-path="url(#clipPath1697)"
   transform="matrix(0.66175372,0,0,0.66161064,-2.6398317,-19.598583)"><g
     id="g379"><g
       id="g116"
       transform="translate(0,-1.0430605)">
	<path
   d="M 56.3,31.9 C 55.8,31 55.2,30.6 54.5,30.6 H 5.4 c -0.9,0 -1.6,0.7 -1.6,1.6 v 33.1 l 0.1,0.9 v 0 0 0 0 0 0.1 H 4.1 4 4.1 v 0.2 h 0.1 v 0.1 h 0.3 l 0.7,0.7 h 49.6 0.3 l 0.4,-0.2 0.6,-0.6 v -0.2 l 0.1,-0.1 0.1,-0.2 0.2,-0.2 0.1,-33.7 z M 7,40 21.1,51.2 7,62.4 Z m 3.1,24.1 13.7,-10.9 5,4 c 0.4,0.4 0.9,0.4 1.1,0.4 0.3,0 0.7,-0.2 0.9,-0.2 l 5.3,-4.1 13.7,10.9 H 10.1 Z m 28.5,-13 14.1,-11.2 0.1,22.5 z M 52.8,35.8 29.9,54 7,35.8 v -1.5 h 45.8 z"
   id="path114" />
</g></g></g>
</svg>
