<?xml version="1.0" encoding="UTF-8" standalone="no"?>
<!-- Generator: Adobe Illustrator 24.3.0, SVG Export Plug-In . SVG Version: 6.00 Build 0)  -->

<svg
   version="1.1"
   id="Layer_1"
   x="0px"
   y="0px"
   viewBox="0 0 34.799999 34.78"
   xml:space="preserve"
   sodipodi:docname="web-icon-cropped.svg"
   width="34.799999"
   height="34.779999"
   inkscape:version="1.1.2 (b8e25be8, 2022-02-05)"
   xmlns:inkscape="http://www.inkscape.org/namespaces/inkscape"
   xmlns:sodipodi="http://sodipodi.sourceforge.net/DTD/sodipodi-0.dtd"
   xmlns="http://www.w3.org/2000/svg"
   xmlns:svg="http://www.w3.org/2000/svg"><defs
   id="defs1996"><clipPath
     clipPathUnits="userSpaceOnUse"
     id="clipPath2126"><rect
       style="opacity:0.5;fill:#ff0000"
       id="rect2128"
       width="34.959999"
       height="34.894283"
       x="1.9714285"
       y="0.91999996" /></clipPath></defs><sodipodi:namedview
   id="namedview1994"
   pagecolor="#ffffff"
   bordercolor="#cccccc"
   borderopacity="1"
   inkscape:pageshadow="0"
   inkscape:pageopacity="0"
   inkscape:pagecheckerboard="0"
   showgrid="false"
   fit-margin-top="0"
   fit-margin-left="0"
   fit-margin-right="0"
   fit-margin-bottom="0"
   inkscape:zoom="8.9288567"
   inkscape:cx="-17.52744"
   inkscape:cy="18.815399"
   inkscape:window-width="1296"
   inkscape:window-height="788"
   inkscape:window-x="0"
   inkscape:window-y="23"
   inkscape:window-maximized="0"
   inkscape:current-layer="Layer_1" />
<path
   d="M 19.4,0.9 C 9.8,0.9 2,8.7 2,18.3 2,27.9 9.8,35.7 19.4,35.7 29,35.7 36.8,27.9 36.8,18.3 36.8,8.7 29,0.9 19.4,0.9 Z M 28,24.2 c 0.4,-1.5 0.6,-3.1 0.7,-4.9 h 6 C 34.5,22.2 33.6,24.8 32,27 31.3,26.2 30,25.1 28,24.2 Z M 6.7,27 C 5.2,24.8 4.2,22.1 4,19.3 h 5.9 c 0.1,1.8 0.3,3.4 0.7,4.9 -1.9,0.9 -3.1,2 -3.9,2.8 z m 4,-14.7 c -0.4,1.5 -0.7,3.2 -0.8,5 H 4.1 c 0.2,-2.9 1.2,-5.6 2.7,-7.8 0.7,0.8 2,1.9 3.9,2.8 z m 9.7,1.7 c 2.3,-0.1 4.2,-0.4 5.7,-0.9 0.3,1.3 0.6,2.7 0.6,4.2 h -6.4 z m 0,-2 V 3.2 c 1.1,1.1 3.6,3.8 5.1,7.9 -1.4,0.5 -3.1,0.8 -5.1,0.9 z m -2,-8.9 V 12 c -2.1,-0.1 -3.8,-0.4 -5.2,-0.8 1.6,-4.3 4.1,-7 5.2,-8.1 z m 0,10.9 v 3.3 h -6.5 c 0.1,-1.5 0.3,-3 0.6,-4.3 1.7,0.5 3.6,0.9 5.9,1 z m -6.5,5.3 h 6.5 v 3.2 c -2.3,0.1 -4.3,0.5 -5.8,1 -0.4,-1.3 -0.6,-2.7 -0.7,-4.2 z m 6.5,5.2 v 8.8 c -1.1,-1 -3.7,-3.7 -5.2,-8 1.4,-0.4 3.1,-0.7 5.2,-0.8 z m 2,8.8 v -8.7 c 2.1,0.1 3.8,0.4 5.2,0.8 -1.6,4.1 -4.1,6.8 -5.2,7.9 z m 0,-10.8 v -3.2 h 6.4 c -0.1,1.5 -0.3,2.9 -0.6,4.1 -1.6,-0.4 -3.5,-0.8 -5.8,-0.9 z m 8.4,-5.2 c -0.1,-1.8 -0.3,-3.4 -0.7,-5 2,-0.9 3.2,-2 4,-2.8 1.6,2.2 2.5,4.9 2.7,7.8 z m 1.9,-9.4 c -0.5,0.6 -1.5,1.7 -3.3,2.5 -1.1,-3.1 -2.7,-5.4 -4.1,-7 2.9,0.8 5.5,2.4 7.4,4.5 z M 15.3,3.5 C 14,5.1 12.4,7.4 11.3,10.4 9.6,9.5 8.6,8.6 8.1,7.9 10,5.8 12.5,4.2 15.3,3.5 Z M 8,28.6 C 8.5,28 9.5,27 11.3,26.1 c 1.1,3.1 2.8,5.5 4.1,7 C 12.5,32.4 10,30.8 8,28.6 Z m 15.2,4.6 c 1.4,-1.6 3,-3.9 4.2,-7.1 1.8,0.9 2.9,1.9 3.4,2.6 -2,2.1 -4.6,3.7 -7.6,4.5 z"
   id="path1991"
   clip-path="url(#clipPath2126)"
   transform="translate(-2,-0.91999996)" />
</svg>
